<?xml version="1.0" encoding="utf-8"?>
<!-- Generator: Adobe Illustrator 14.0.0, SVG Export Plug-In . SVG Version: 6.00 Build 43363)  -->
<!DOCTYPE svg PUBLIC "-//W3C//DTD SVG 1.1//EN" "http://www.w3.org/Graphics/SVG/1.1/DTD/svg11.dtd">
<svg version="1.1" id="Capa_1" xmlns="http://www.w3.org/2000/svg" xmlns:xlink="http://www.w3.org/1999/xlink" x="0px" y="0px"
	 width="16px" height="16px" viewBox="0 0 16 16" enable-background="new 0 0 16 16" xml:space="preserve">
<g>
	<path fill="#373533" d="M13.832,6.387h-2.846h-0.266H9.762c-0.459,0-0.65,0.186-0.65,0.603v3.885c0,0.834-0.564,1.314-1.417,1.314
		c-0.852,0-1.417-0.48-1.417-1.307V8.77H6.274V5.353l2.659,0.001L4.745,1.167v1.785l1.07,1.071H5.031V8.77H5.024v2.15
		c0,1.393,1.062,2.354,2.68,2.354c1.599,0,2.661-0.961,2.661-2.354V7.568c0-0.125,0.076-0.196,0.211-0.196h0.145h0.266h0.357v5.882
		c0.002,0,1.252,0.076,1.252-0.709h0.002v-2.029h1.234c1.273,0,2.164-0.852,2.164-2.078C15.996,7.212,15.105,6.387,13.832,6.387
		 M13.604,9.521h-1.006V7.372h1.025c0.688,0,1.09,0.417,1.09,1.065C14.713,9.095,14.311,9.521,13.604,9.521"/>
	<path fill="#ACC200" d="M4.178,1.171L0.004,5.344h2.645v7.996v0.812c-0.002,0.02-0.003,0.039-0.003,0.059
		c0,0.344,0.278,0.623,0.623,0.623c0.338,0,0.611-0.27,0.621-0.604h0.002v-0.861V4.027H3.107l1.071-1.07V1.171z M3.278,13.719
		c0.267,0,0.484,0.217,0.484,0.482c0,0.268-0.217,0.484-0.484,0.484c-0.266,0-0.483-0.217-0.483-0.484
		C2.795,13.936,3.012,13.719,3.278,13.719"/>
</g>
</svg>
